<svg xmlns="http://www.w3.org/2000/svg" viewBox="0 0 900 240" role="img" aria-label="No Face Lab">
  <title>No Face Lab</title>
  <defs>
    <mask id="nfl-mask-h" maskUnits="userSpaceOnUse" x="0" y="0" width="200" height="240">
      <rect width="200" height="240" fill="white"/>
      <path d="M 100 24 L 108 66 L 150 74 L 108 82 L 100 140 L 92 82 L 50 74 L 92 66 Z" fill="black"/>
      <rect x="116" y="98" width="32" height="8" rx="1.5" fill="black"/>
    </mask>
  </defs>

  <!-- Helmet silhouette -->
  <path d="
    M 100 8
    C 62 8, 36 32, 36 72
    C 36 92, 40 106, 46 116
    C 46 122, 46 128, 44 134
    C 38 152, 24 178, 10 208
    C 6 218, 10 228, 22 228
    L 176 228
    C 186 228, 190 220, 186 210
    C 176 184, 164 158, 158 138
    C 156 130, 156 122, 158 116
    L 150 108
    L 158 102
    L 158 96
    C 162 88, 164 80, 164 72
    C 164 32, 138 8, 100 8 Z"
    fill="#ffffff" mask="url(#nfl-mask-h)"/>

  <!-- Wordmark: "NO FACE LAB" -->
  <g font-family="Inter, -apple-system, Segoe UI, Helvetica, Arial, sans-serif" font-weight="900" font-size="128" letter-spacing="-3">
    <text x="230" y="158" fill="#ffffff">NO FACE</text>
    <text x="710" y="158" fill="#ff7a1a">LAB</text>
  </g>
</svg>
